<?xml version="1.0" encoding="utf-8"?>
<!-- Generator: Adobe Illustrator 16.0.0, SVG Export Plug-In . SVG Version: 6.00 Build 0)  -->
<!DOCTYPE svg PUBLIC "-//W3C//DTD SVG 1.1//EN" "http://www.w3.org/Graphics/SVG/1.1/DTD/svg11.dtd">
<svg version="1.1" id="Layer_1" xmlns="http://www.w3.org/2000/svg" xmlns:xlink="http://www.w3.org/1999/xlink" x="0px" y="0px"
	 width="100px" height="40px" viewBox="0 0 100 40" enable-background="new 0 0 100 40" xml:space="preserve">
<rect display="none" fill="#E84A9A" width="100" height="40"/>
<g>
	<path fill="#BA2B95" d="M11.615,11.485L11.615,11.485c-0.018,0-0.037,0.003-0.053,0.003h-0.058v0.002
		c-4.029,0.055-6.939,3.083-6.939,6.812v4.368l0.001-0.001v3.701c1.963,0,3.582-1.374,3.777-3.139l0.019,0.01h3.52v3.129
		c2.098,0,3.797-1.566,3.797-3.5V11.485H11.615 M11.881,20.332H8.318v-1.18c0-2.172,1.595-3.931,3.563-3.931V20.332z"/>
	<path fill="#BA2B95" d="M47.665,16.313c-0.071-0.239-0.156-0.471-0.251-0.696c-0.062-0.144-0.129-0.286-0.2-0.426
		c-0.1-0.192-0.208-0.381-0.323-0.563c-0.078-0.121-0.16-0.243-0.246-0.357c-0.121-0.164-0.25-0.321-0.386-0.472
		c-0.095-0.106-0.192-0.208-0.294-0.31c-0.145-0.144-0.297-0.281-0.455-0.411c-0.113-0.093-0.232-0.181-0.352-0.266
		c-0.18-0.13-0.366-0.25-0.561-0.364c-1.027-0.591-2.24-0.939-3.582-0.957v-0.002h-0.058c-0.017,0-0.036-0.003-0.054-0.003H36.84
		v11.386c0,1.935,1.701,3.5,3.797,3.5v-3.129h3.518l0.021-0.011c0.197,1.764,1.813,3.14,3.779,3.14V22.67v0.001v-4.368
		C47.955,17.609,47.855,16.941,47.665,16.313 M44.202,20.332h-3.563v-5.11c1.969,0,3.563,1.758,3.563,3.932V20.332z"/>
	<path fill="#BA2B95" d="M35.634,16.033v-4.548c-2.098,0-3.797,1.569-3.797,3.498v6.839h0.001v4.549c2.097,0,3.797-1.566,3.797-3.5
		L35.634,16.033L35.634,16.033"/>
	<path fill="#BA2B95" d="M26.5,17.2h-5.01c-0.53,0-0.96-0.427-0.96-0.957c0-0.517,0.409-0.937,0.92-0.956l-0.001-0.003h6.138
		c1.933,0,3.036-1.699,3.036-3.794H26.54v-0.005h-3.931l-1.594-0.003c-2.534,0-4.123,2.053-4.123,4.585
		c0,2.535,1.589,4.589,4.123,4.589h5.101c0.528,0,0.957,0.429,0.957,0.957c0,0.527-0.429,0.96-0.957,0.96H20.39
		c-1.931,0-3.496,1.7-3.496,3.796h4.083v0.002h3.931l1.595,0.006c2.534,0,4.122-2.052,4.122-4.586
		C30.624,19.258,29.034,17.2,26.5,17.2"/>
	<path fill="#BA2B95" d="M63.758,11.535v11.099c-1.814,0-3.312-1.509-3.519-3.452l-0.003-4.407l0.003-0.116
		c-0.003-0.003-0.003-0.005-0.003-0.005c-0.129-1.14-0.853-2.115-1.881-2.658c-1.027,0.544-1.75,1.519-1.879,2.657
		c0,0.001,0,0.002,0,0.002v0.119v4.408c-0.207,1.942-1.707,3.451-3.523,3.451V11.535c-2.084,0-3.778,1.559-3.778,3.482V26.35
		l4.157-0.002v-0.002c2.04-0.029,3.795-0.824,5.023-2.091c1.229,1.267,2.985,2.062,5.027,2.091v0.002l4.155,0.002V15.017
		C67.539,13.094,65.85,11.535,63.758,11.535"/>
	<path fill="#BA2B95" d="M78.991,22.573h-5.726c-0.525,0-0.955-0.433-0.955-0.96c0-0.528,0.43-0.957,0.955-0.957h6.803V17.2h-6.713
		c-0.528,0-0.959-0.427-0.959-0.957c0-0.517,0.412-0.937,0.922-0.956l-0.002-0.003h6.142c1.933,0,3.033-1.699,3.033-3.794h-4.085
		v-0.005h-3.93l-1.598-0.003c-2.529,0-4.119,2.053-4.119,4.585c0,1.083,0.292,2.078,0.821,2.863
		c-0.529,0.784-0.821,1.778-0.821,2.861c0,2.533,1.59,4.586,4.119,4.586l1.598-0.008h3.93v-0.002h4.085
		C82.491,24.273,80.925,22.573,78.991,22.573"/>
	<path fill="#BA2B95" d="M97.436,16.068c0-2.534-1.59-4.586-4.123-4.586l-1.595,0.004h-3.932v0.005h-0.282v-0.01h-3.799v4.156v6.935
		l0,0v3.798h8.013l1.595,0.006c2.533,0,4.123-2.052,4.123-4.586c0-1.083-0.293-2.075-0.822-2.862
		C97.143,18.145,97.436,17.15,97.436,16.068 M92.928,15.285c0.528,0,0.956,0.432,0.956,0.96s-0.428,0.957-0.956,0.957h-5.424v-1.916
		L92.928,15.285L92.928,15.285L92.928,15.285z M92.875,22.568l0.003,0.005h-5.374v-1.917h5.334c0.528,0,0.958,0.429,0.958,0.958
		C93.796,22.13,93.386,22.55,92.875,22.568z"/>
	<path fill="#BA2B95" d="M92.393,28.951L92.393,28.951h-0.041c-0.014,0-0.025-0.001-0.037-0.001h-43.14v4.125
		c0,2.692,2.104,4.883,5.013,4.922V38h0.045c0.011,0,0.025,0,0.037,0h43.135v-4.127C97.404,31.18,95.305,28.992,92.393,28.951
		 M61.275,36.76c-0.012,0-0.023-0.002-0.035-0.002v0.002h-4.709v-6.354h1.783v0.001c1.719,0.022,2.961,1.315,2.961,2.909V36.76
		L61.275,36.76z M63.711,34.818v0.449c0,0.826-0.729,1.496-1.625,1.496V34.82l0,0V31.9c0-0.827,0.727-1.496,1.623-1.496v1.943h0.002
		V34.818z M69.535,34.953h-0.002l0.854,1.525c-0.783,0.436-1.646,0.381-2.049-0.34l-1.018-1.816h-1.176v0.938
		c0,0.827-0.729,1.495-1.623,1.495v-4.37v2.625v-4.305l-0.002-0.257v-0.046h4.104c1.084,0,1.763,0.877,1.763,1.961
		c0,0.896-0.47,1.654-1.245,1.886L69.535,34.953z M73.062,32.031c-0.217,0.005-0.394,0.187-0.394,0.404
		c0,0.229,0.183,0.412,0.408,0.412h2.868v1.475H73.04c-0.226,0-0.408,0.183-0.408,0.41c0,0.224,0.183,0.408,0.408,0.408h2.446
		c0.826,0,1.494,0.729,1.494,1.62h-1.744v0.003h-1.68l-0.682,0.002c-1.081,0-1.762-0.875-1.762-1.959
		c0-0.465,0.125-0.887,0.353-1.224c-0.228-0.334-0.353-0.759-0.353-1.222c0-1.084,0.681-1.961,1.762-1.961l0.682,0.004h3.424
		c0,0.896-0.471,1.625-1.295,1.625L73.062,32.031L73.062,32.031z M79.671,32.031c-0.219,0.005-0.392,0.187-0.392,0.404v1.948
		l-0.004,0.002v0.347c0,0.224,0.184,0.408,0.408,0.408h2.41c0.826,0,1.496,0.729,1.496,1.62h-1.744v0.003h-1.681l-0.681,0.002
		c-1.08,0-1.758-0.871-1.762-1.949v-2.516h0.002c0.025-1.053,0.697-1.9,1.76-1.9l0.681,0.004h3.425c0,0.896-0.473,1.625-1.297,1.625
		L79.671,32.031L79.671,32.031L79.671,32.031z M90.006,32.029h-1.005v0.002c-0.168,0.005-0.312,0.113-0.366,0.265v2.972
		c0,0.825-0.724,1.494-1.623,1.494v-4.406c-0.037-0.183-0.195-0.318-0.384-0.323v-0.003h-1.006c-0.825,0-1.296-0.729-1.296-1.625
		h1.807h0.146V30.4h3.457v0.004h1.565C91.302,31.302,90.831,32.029,90.006,32.029z"/>
	<path fill="#BA2B95" d="M9.563,8.422H8.457V6.164H6.385v2.258H5.276V3.191h1.109v2.05h2.072v-2.05h1.106V8.422z"/>
	<path fill="#BA2B95" d="M15.631,5.799c0,0.866-0.215,1.531-0.644,1.997c-0.43,0.465-1.045,0.698-1.846,0.698
		c-0.802,0-1.417-0.232-1.846-0.698c-0.43-0.466-0.645-1.133-0.645-2.004s0.216-1.536,0.646-1.995
		c0.431-0.459,1.048-0.689,1.852-0.689s1.418,0.231,1.845,0.694C15.418,4.266,15.631,4.931,15.631,5.799z M11.813,5.799
		c0,0.585,0.111,1.025,0.333,1.32c0.222,0.296,0.553,0.444,0.995,0.444c0.885,0,1.327-0.588,1.327-1.764
		c0-1.178-0.44-1.767-1.32-1.767c-0.441,0-0.774,0.148-0.998,0.445C11.925,4.774,11.813,5.215,11.813,5.799z"/>
	<path fill="#BA2B95" d="M18.732,8.422h-1.109V4.114h-1.42V3.191h3.95v0.923h-1.421V8.422z"/>
	<path fill="#BA2B95" d="M23.971,8.422h-3.013V3.191h3.013V4.1h-1.903v1.148h1.771v0.909h-1.771v1.349h1.903V8.422z"/>
	<path fill="#BA2B95" d="M25.062,8.422V3.191h1.109v4.315h2.122v0.916H25.062z"/>
	<path fill="#BA2B95" d="M32.289,6.969c0,0.473-0.17,0.845-0.51,1.117c-0.34,0.272-0.812,0.408-1.418,0.408
		c-0.558,0-1.052-0.105-1.481-0.314V7.148c0.353,0.158,0.652,0.269,0.896,0.333c0.244,0.064,0.468,0.097,0.671,0.097
		c0.243,0,0.43-0.047,0.56-0.14c0.13-0.093,0.195-0.231,0.195-0.415c0-0.103-0.029-0.194-0.086-0.274
		c-0.057-0.08-0.142-0.157-0.252-0.231c-0.111-0.074-0.337-0.192-0.678-0.354c-0.32-0.15-0.56-0.294-0.719-0.433
		c-0.16-0.138-0.288-0.3-0.383-0.483C28.989,5.065,28.94,4.85,28.94,4.604c0-0.462,0.157-0.826,0.47-1.091
		c0.314-0.265,0.748-0.397,1.301-0.397c0.272,0,0.531,0.032,0.778,0.097c0.247,0.064,0.505,0.155,0.774,0.271l-0.357,0.863
		c-0.279-0.114-0.51-0.195-0.693-0.24s-0.362-0.068-0.538-0.068c-0.21,0-0.371,0.049-0.483,0.147
		c-0.112,0.098-0.168,0.226-0.168,0.383c0,0.098,0.022,0.183,0.068,0.256c0.046,0.073,0.118,0.143,0.216,0.211
		c0.099,0.067,0.333,0.19,0.703,0.367c0.489,0.233,0.824,0.468,1.005,0.703C32.199,6.34,32.289,6.628,32.289,6.969z"/>
	<path fill="#BA2B95" d="M35.141,3.191h1.628c0.741,0,1.279,0.105,1.615,0.316s0.502,0.547,0.502,1.007
		c0,0.312-0.072,0.569-0.22,0.77c-0.147,0.2-0.342,0.321-0.585,0.361v0.036c0.332,0.074,0.57,0.212,0.717,0.415
		c0.146,0.203,0.221,0.472,0.221,0.809c0,0.477-0.172,0.849-0.518,1.116c-0.345,0.267-0.812,0.401-1.404,0.401H35.14L35.141,3.191
		L35.141,3.191z M36.25,5.263h0.645c0.301,0,0.518-0.047,0.652-0.14c0.135-0.093,0.202-0.247,0.202-0.461
		c0-0.201-0.073-0.344-0.22-0.432C37.382,4.143,37.15,4.1,36.833,4.1H36.25V5.263z M36.25,6.143v1.363h0.723
		c0.307,0,0.531-0.059,0.676-0.176c0.146-0.116,0.219-0.295,0.219-0.536c0-0.435-0.311-0.651-0.93-0.651H36.25z"/>
	<path fill="#BA2B95" d="M41.691,5.345l1.093-2.154h1.194l-1.734,3.195v2.036h-1.102v-2l-1.735-3.231h1.202L41.691,5.345z"/>
</g>
<path fill="#FFFFFF" d="M57.152,30.998v3.141h1.513l0.009-1.462C58.674,31.749,57.992,30.998,57.152,30.998"/>
<path fill="#FFFFFF" d="M67.461,31.029h-2.316v0.818h2.316c0.225,0,0.408-0.185,0.408-0.412
	C67.869,31.212,67.686,31.029,67.461,31.029"/>
<path fill="#FFFFFF" d="M10.615,10.485L10.615,10.485c-0.018,0-0.037,0.003-0.053,0.003h-0.058v0.002
	c-4.029,0.055-6.939,3.083-6.939,6.813v4.368l0.001-0.001v3.701c1.963,0,3.582-1.374,3.777-3.139l0.019,0.01h3.52v3.129
	c2.098,0,3.797-1.566,3.797-3.5V10.485H10.615 M10.881,19.332H7.318v-1.18c0-2.172,1.595-3.931,3.563-3.931V19.332z"/>
<path fill="#FFFFFF" d="M46.665,15.313c-0.071-0.239-0.156-0.471-0.251-0.696c-0.062-0.144-0.129-0.286-0.2-0.426
	c-0.1-0.192-0.208-0.381-0.324-0.563c-0.078-0.121-0.159-0.243-0.246-0.357c-0.12-0.164-0.249-0.321-0.385-0.472
	c-0.095-0.106-0.193-0.208-0.294-0.31c-0.145-0.144-0.297-0.281-0.455-0.411c-0.114-0.093-0.233-0.181-0.352-0.266
	c-0.18-0.13-0.366-0.25-0.56-0.364c-1.028-0.591-2.241-0.939-3.582-0.957v-0.002h-0.058c-0.017,0-0.036-0.003-0.053-0.003H35.84
	v11.386c0,1.935,1.701,3.5,3.797,3.5v-3.129h3.518l0.02-0.011c0.197,1.764,1.813,3.14,3.779,3.14V21.67v0.001v-4.368
	C46.955,16.61,46.856,15.941,46.665,15.313 M43.202,19.332h-3.564v-5.11c1.969,0,3.564,1.759,3.564,3.932V19.332z"/>
<path fill="#FFFFFF" d="M34.634,15.033v-4.548c-2.098,0-3.797,1.569-3.797,3.498v6.839h0.001v4.549c2.097,0,3.797-1.566,3.797-3.5
	L34.634,15.033L34.634,15.033"/>
<path fill="#FFFFFF" d="M25.5,16.2h-5.01c-0.53,0-0.96-0.427-0.96-0.957c0-0.517,0.409-0.937,0.92-0.956l-0.001-0.003h6.138
	c1.933,0,3.036-1.699,3.036-3.794H25.54v-0.005h-3.931l-1.594-0.003c-2.534,0-4.123,2.053-4.123,4.585
	c0,2.535,1.589,4.589,4.123,4.589h5.101c0.528,0,0.957,0.429,0.957,0.957c0,0.527-0.429,0.96-0.957,0.96H19.39
	c-1.931,0-3.496,1.7-3.496,3.796h4.083v0.002h3.931l1.595,0.006c2.534,0,4.122-2.052,4.122-4.586
	C29.624,18.258,28.034,16.2,25.5,16.2"/>
<path fill="#FFD31D" d="M62.758,10.535v11.099c-1.814,0-3.312-1.509-3.519-3.452l-0.003-4.407l0.003-0.116
	c-0.003-0.003-0.003-0.005-0.003-0.005c-0.129-1.14-0.853-2.115-1.881-2.658c-1.027,0.544-1.75,1.519-1.879,2.657
	c0,0.001,0,0.002,0,0.002v0.119v4.407c-0.207,1.943-1.707,3.452-3.523,3.452V10.535c-2.084,0-3.778,1.559-3.778,3.482V25.35
	l4.157-0.002v-0.002c2.04-0.029,3.795-0.824,5.023-2.091c1.229,1.267,2.985,2.062,5.027,2.091v0.002l4.155,0.002V14.017
	C66.539,12.094,64.85,10.535,62.758,10.535"/>
<path fill="#FFD31D" d="M77.991,21.573h-5.726c-0.525,0-0.955-0.433-0.955-0.96c0-0.528,0.43-0.957,0.955-0.957h6.803V16.2h-6.713
	c-0.528,0-0.959-0.427-0.959-0.957c0-0.517,0.412-0.937,0.922-0.956l-0.002-0.003h6.142c1.933,0,3.033-1.699,3.033-3.794h-4.085
	v-0.005h-3.93l-1.598-0.003c-2.529,0-4.119,2.053-4.119,4.585c0,1.084,0.292,2.077,0.821,2.862
	c-0.529,0.785-0.821,1.779-0.821,2.862c0,2.533,1.59,4.586,4.119,4.586l1.598-0.008h3.93v-0.002h4.085
	C81.491,23.273,79.925,21.573,77.991,21.573"/>
<path fill="#FFD31D" d="M96.436,15.068c0-2.534-1.59-4.586-4.123-4.586l-1.595,0.004h-3.932v0.005h-0.282v-0.01h-3.799v4.156v6.935
	l0,0v3.798h8.013l1.595,0.006c2.533,0,4.123-2.052,4.123-4.586c0-1.083-0.293-2.075-0.822-2.862
	C96.143,17.144,96.436,16.151,96.436,15.068 M91.928,14.285c0.528,0,0.956,0.432,0.956,0.96c0,0.528-0.428,0.957-0.956,0.957h-5.424
	v-1.916L91.928,14.285L91.928,14.285L91.928,14.285z M91.875,21.568l0.003,0.005h-5.374v-1.917h5.334
	c0.528,0,0.958,0.429,0.958,0.958C92.796,21.13,92.386,21.55,91.875,21.568z"/>
<path fill="#FFFFFF" d="M91.393,27.951L91.393,27.951h-0.041c-0.014,0-0.025-0.001-0.037-0.001h-43.14v4.125
	c0,2.692,2.104,4.883,5.013,4.922V37h0.045c0.011,0,0.025,0,0.037,0h43.135v-4.127C96.404,30.18,94.305,27.992,91.393,27.951
	 M60.275,35.76c-0.012,0-0.023-0.002-0.035-0.002v0.002h-4.709v-6.354h1.783v0.001c1.719,0.022,2.961,1.315,2.961,2.909V35.76
	L60.275,35.76z M62.711,33.818v0.449c0,0.826-0.729,1.496-1.625,1.496V33.82l0,0V30.9c0-0.827,0.727-1.496,1.623-1.496v1.943h0.002
	V33.818z M68.535,33.953h-0.002l0.854,1.525c-0.783,0.436-1.646,0.381-2.049-0.34l-1.018-1.816h-1.176v0.938
	c0,0.827-0.729,1.495-1.623,1.495v-4.37v2.625v-4.305l-0.002-0.257v-0.046h4.104c1.084,0,1.763,0.877,1.763,1.961
	c0,0.896-0.47,1.654-1.245,1.886L68.535,33.953z M72.062,31.031c-0.217,0.005-0.394,0.187-0.394,0.404
	c0,0.229,0.183,0.412,0.408,0.412h2.868v1.475H72.04c-0.226,0-0.408,0.183-0.408,0.41c0,0.224,0.183,0.408,0.408,0.408h2.446
	c0.826,0,1.494,0.729,1.494,1.62h-1.744v0.003h-1.68l-0.682,0.002c-1.081,0-1.762-0.875-1.762-1.959
	c0-0.465,0.125-0.887,0.353-1.224c-0.228-0.334-0.353-0.759-0.353-1.222c0-1.084,0.681-1.961,1.762-1.961l0.682,0.004h3.424
	c0,0.896-0.471,1.625-1.295,1.625L72.062,31.031L72.062,31.031z M78.671,31.031c-0.219,0.005-0.392,0.187-0.392,0.404v1.948
	l-0.004,0.002v0.347c0,0.224,0.184,0.408,0.408,0.408h2.41c0.826,0,1.496,0.729,1.496,1.62h-1.744v0.003h-1.681l-0.681,0.002
	c-1.08,0-1.758-0.871-1.762-1.949v-2.516h0.002c0.025-1.053,0.697-1.9,1.76-1.9l0.681,0.004h3.425c0,0.896-0.473,1.625-1.297,1.625
	L78.671,31.031L78.671,31.031L78.671,31.031z M89.006,31.029h-1.005v0.002c-0.168,0.005-0.312,0.113-0.366,0.265v2.972
	c0,0.825-0.724,1.494-1.623,1.494v-4.406c-0.037-0.183-0.195-0.318-0.384-0.323v-0.003h-1.006c-0.825,0-1.296-0.729-1.296-1.625
	h1.807h0.146V29.4h3.457v0.004h1.565C90.302,30.302,89.831,31.029,89.006,31.029z"/>
<path fill="#FFFFFF" d="M8.563,7.422H7.457V5.164H5.385v2.258H4.276V2.191h1.109v2.05h2.072v-2.05h1.106V7.422z"/>
<path fill="#FFFFFF" d="M14.631,4.799c0,0.866-0.215,1.531-0.644,1.997c-0.43,0.465-1.045,0.698-1.846,0.698
	c-0.802,0-1.417-0.232-1.846-0.698C9.865,6.33,9.65,5.663,9.65,4.792s0.216-1.536,0.646-1.995c0.431-0.459,1.048-0.689,1.852-0.689
	s1.418,0.231,1.845,0.694C14.418,3.266,14.631,3.931,14.631,4.799z M10.813,4.799c0,0.585,0.111,1.025,0.333,1.32
	c0.222,0.296,0.553,0.444,0.995,0.444c0.885,0,1.327-0.588,1.327-1.764c0-1.178-0.44-1.767-1.32-1.767
	c-0.441,0-0.774,0.148-0.998,0.445C10.925,3.774,10.813,4.215,10.813,4.799z"/>
<path fill="#FFFFFF" d="M17.732,7.422h-1.109V3.114h-1.42V2.191h3.95v0.923h-1.421V7.422z"/>
<path fill="#FFFFFF" d="M22.971,7.422h-3.013V2.191h3.013V3.1h-1.903v1.148h1.771v0.909h-1.771v1.349h1.903V7.422z"/>
<path fill="#FFFFFF" d="M24.062,7.422V2.191h1.109v4.315h2.122v0.916H24.062z"/>
<path fill="#FFFFFF" d="M31.289,5.969c0,0.473-0.17,0.845-0.51,1.117c-0.34,0.272-0.812,0.408-1.418,0.408
	c-0.558,0-1.052-0.105-1.481-0.314V6.148c0.353,0.158,0.652,0.269,0.896,0.333c0.244,0.064,0.468,0.097,0.671,0.097
	c0.243,0,0.43-0.047,0.56-0.14c0.13-0.093,0.195-0.231,0.195-0.415c0-0.103-0.029-0.194-0.086-0.274
	c-0.057-0.08-0.142-0.157-0.252-0.231c-0.111-0.074-0.337-0.192-0.678-0.354c-0.32-0.15-0.56-0.294-0.719-0.433
	c-0.16-0.138-0.288-0.3-0.383-0.483C27.989,4.065,27.94,3.85,27.94,3.604c0-0.462,0.157-0.826,0.47-1.091
	c0.314-0.265,0.748-0.397,1.301-0.397c0.272,0,0.531,0.032,0.778,0.097c0.247,0.064,0.505,0.155,0.774,0.271l-0.357,0.863
	c-0.279-0.114-0.51-0.195-0.693-0.24s-0.362-0.068-0.538-0.068c-0.21,0-0.371,0.049-0.483,0.147
	c-0.112,0.098-0.168,0.226-0.168,0.383c0,0.098,0.022,0.183,0.068,0.256c0.046,0.073,0.118,0.143,0.216,0.211
	c0.099,0.067,0.333,0.19,0.703,0.367c0.489,0.233,0.824,0.468,1.005,0.703C31.199,5.34,31.289,5.628,31.289,5.969z"/>
<path fill="#FFFFFF" d="M34.141,2.191h1.628c0.742,0,1.28,0.105,1.616,0.316c0.335,0.211,0.502,0.547,0.502,1.007
	c0,0.312-0.073,0.569-0.22,0.77c-0.147,0.2-0.342,0.321-0.585,0.361v0.036c0.332,0.074,0.57,0.212,0.717,0.415
	c0.147,0.203,0.22,0.472,0.22,0.809c0,0.477-0.172,0.849-0.517,1.116c-0.345,0.267-0.813,0.401-1.405,0.401H34.14L34.141,2.191
	L34.141,2.191z M35.25,4.263h0.644c0.301,0,0.518-0.047,0.653-0.14c0.135-0.093,0.202-0.247,0.202-0.461
	c0-0.201-0.073-0.344-0.22-0.432C36.382,3.143,36.15,3.1,35.833,3.1H35.25V4.263z M35.25,5.143v1.363h0.723
	c0.306,0,0.531-0.059,0.676-0.176c0.146-0.116,0.218-0.295,0.218-0.536c0-0.435-0.31-0.651-0.93-0.651H35.25z"/>
<path fill="#FFFFFF" d="M40.692,4.345l1.092-2.154h1.195l-1.735,3.195v2.036h-1.102v-2l-1.735-3.231h1.202L40.692,4.345z"/>
<path fill="#FFFFFF" d="M57.152,30.998v3.141h1.513l0.009-1.462C58.674,31.749,57.992,30.998,57.152,30.998"/>
<path fill="#FFFFFF" d="M67.461,31.029h-2.316v0.818h2.316c0.225,0,0.408-0.185,0.408-0.412
	C67.869,31.212,67.686,31.029,67.461,31.029"/>
</svg>
