<?xml version="1.0" encoding="utf-8"?>
<!-- Generator: Adobe Illustrator 16.0.0, SVG Export Plug-In . SVG Version: 6.00 Build 0)  -->
<!DOCTYPE svg PUBLIC "-//W3C//DTD SVG 1.1//EN" "http://www.w3.org/Graphics/SVG/1.1/DTD/svg11.dtd">
<svg version="1.1" id="Layer_1" xmlns="http://www.w3.org/2000/svg" xmlns:xlink="http://www.w3.org/1999/xlink" x="0px" y="0px"
	 width="50px" height="50px" viewBox="0 0 50 50" enable-background="new 0 0 50 50" xml:space="preserve">
<circle fill="#FFFFFF" cx="25.439" cy="25.438" r="24.561"/>
<circle fill="#E74D9B" cx="24.562" cy="24.562" r="24.561"/>
<g>
	<path fill="#FDFDFE" d="M21.265,17.028v0.841l-2.743,0.17c0.731,0.91,1.097,1.91,1.097,2.999c0,1.276-0.425,2.31-1.274,3.103
		c-0.849,0.792-1.989,1.188-3.419,1.188c-0.602,0-1.024-0.024-1.268-0.073c-0.479,0.252-0.845,0.548-1.097,0.89
		c-0.252,0.341-0.378,0.702-0.378,1.085c0,0.422,0.16,0.73,0.481,0.926c0.321,0.195,0.859,0.293,1.615,0.293h2.316
		c1.438,0,2.539,0.29,3.303,0.871c0.764,0.581,1.146,1.44,1.146,2.578c0,1.397-0.566,2.477-1.7,3.236s-2.749,1.14-4.845,1.14
		c-1.666,0-2.956-0.321-3.87-0.963s-1.372-1.536-1.372-2.682c0-0.91,0.282-1.666,0.847-2.268c0.565-0.601,1.331-1.012,2.298-1.23
		c-0.398-0.171-0.717-0.413-0.957-0.726s-0.359-0.672-0.359-1.079c0-0.885,0.564-1.666,1.694-2.34
		c-0.772-0.317-1.374-0.815-1.804-1.493c-0.431-0.679-0.646-1.457-0.646-2.334c0-1.324,0.42-2.387,1.262-3.188
		c0.841-0.8,1.977-1.201,3.407-1.201c0.87,0,1.544,0.085,2.023,0.256H21.265z M10.539,32.521c0,1.82,1.353,2.73,4.059,2.73
		c3.478,0,5.217-1.109,5.217-3.328c0-0.797-0.272-1.373-0.817-1.73s-1.426-0.537-2.645-0.537h-2.169
		C11.753,29.656,10.539,30.611,10.539,32.521z M11.55,21.161c0,1.024,0.311,1.818,0.932,2.383c0.622,0.565,1.453,0.847,2.493,0.847
		c1.105,0,1.953-0.28,2.542-0.841c0.589-0.561,0.884-1.373,0.884-2.438c0-1.129-0.303-1.977-0.908-2.542
		c-0.605-0.564-1.453-0.847-2.542-0.847c-1.056,0-1.887,0.303-2.493,0.908S11.55,20.08,11.55,21.161z"/>
	<path fill="#FDFDFE" d="M33.693,23.635c0,2.162-0.524,3.85-1.572,5.065s-2.495,1.822-4.34,1.822c-1.162,0-2.186-0.28-3.071-0.842
		c-0.886-0.561-1.564-1.365-2.036-2.413c-0.472-1.049-0.707-2.259-0.707-3.632c0-2.162,0.524-3.846,1.572-5.053
		c1.048-1.207,2.487-1.81,4.315-1.81c1.82,0,3.248,0.612,4.285,1.834C33.175,19.83,33.693,21.506,33.693,23.635z M23.235,23.635
		c0,1.82,0.4,3.241,1.201,4.26c0.8,1.02,1.932,1.529,3.395,1.529s2.594-0.51,3.396-1.529c0.8-1.02,1.2-2.44,1.2-4.26
		c0-1.829-0.404-3.247-1.213-4.254c-0.809-1.007-1.944-1.511-3.407-1.511c-1.462,0-2.59,0.502-3.382,1.505
		S23.235,21.799,23.235,23.635z"/>
</g>
<g>
	<polygon fill="#FFFFFF" stroke="#FFFFFF" stroke-width="0.5" stroke-miterlimit="10" points="45.284,24.769 36.694,15.874 
		36.895,15.665 45.486,24.559 	"/>
	<polygon fill="#FFFFFF" stroke="#FFFFFF" stroke-width="0.5" stroke-miterlimit="10" points="45.485,24.564 36.896,33.458 
		36.694,33.25 45.284,24.354 	"/>
</g>
</svg>
