<?xml version="1.0" encoding="utf-8"?>
<!-- Generator: Adobe Illustrator 16.0.4, SVG Export Plug-In . SVG Version: 6.00 Build 0)  -->
<!DOCTYPE svg PUBLIC "-//W3C//DTD SVG 1.1//EN" "http://www.w3.org/Graphics/SVG/1.1/DTD/svg11.dtd">
<svg version="1.1" id="Layer_1" xmlns="http://www.w3.org/2000/svg" xmlns:xlink="http://www.w3.org/1999/xlink" x="0px" y="0px"
	 width="200px" height="40px" viewBox="0 0 200 40" enable-background="new 0 0 200 40" xml:space="preserve">
<g>
	<path fill-rule="evenodd" clip-rule="evenodd" fill="#FFFFFF" d="M7.663,18.218c4.767,0,9.535,0,14.301,0c0-2.492,0-4.984,0-7.475
		c0-1.049-0.164-2.52,0.246-3.197c0.405-0.669,1.491-1.193,2.527-0.762c1.595,0.664,1.128,3.521,1.128,5.729
		c0,4.777,0,9.557,0,14.335c0,1.633,0.296,4.636-0.417,5.559c-0.857,1.106-2.704,0.848-3.287-0.32
		c-0.359-0.719-0.197-2.169-0.197-3.197c0-2.377,0-4.754,0-7.131c-4.766,0-9.534,0-14.301,0c0,2.377,0,4.754,0,7.131
		c0,1.038,0.162,2.489-0.196,3.222c-0.493,1.006-2.312,1.358-3.14,0.394c-0.824-0.962-0.516-3.784-0.515-5.557
		c0-4.804,0-9.608,0-14.411c0-2.2-0.484-5.113,1.128-5.754C5.956,6.38,7.014,6.901,7.417,7.57c0.41,0.679,0.245,2.147,0.245,3.197
		C7.663,13.25,7.663,15.734,7.663,18.218z M89.889,6.636c2.765-0.035,2.208,2.55,2.207,5.188c0,5.032,0,10.066,0,15.098
		c0,1.247,0.224,4.039-0.146,4.92c-0.239,0.566-0.815,0.98-1.496,1.106c-0.442,0.08-0.865-0.062-1.129-0.172
		c-0.41-0.173-0.78-0.464-0.957-0.861c-0.383-0.865-0.171-3.521-0.171-4.771c0-4.843,0-9.689,0-14.532
		c0-1.398-0.272-4.239,0.27-5.115C88.8,6.956,89.265,6.908,89.889,6.636z M56.773,12.365c2.164-0.022,4.572-0.416,5.225,1.156
		c0.087,0.209,0.226,0.528,0.171,0.861c-0.368,2.268-2.859,1.767-5.396,1.745c0,2.59,0,5.181,0,7.771
		c0,1.486-0.108,3.131,0.343,4.181c0.449,1.044,1.733,1.604,3.288,1.204c1.249-0.321,4.285-1.802,4.93-2.656
		c-0.272-0.706-0.449-1.491-0.613-2.31c-0.188-0.939-0.199-2.321-0.024-3.271c0.784-4.276,2.793-7.004,6.378-8.434
		c4.745-1.893,10.026,0.016,12.289,2.926c0.624,0.802,1.191,1.716,1.594,2.729c0.513,1.287,1.358,4.133,0.369,5.386
		c-0.824,1.04-2.766,0.671-4.392,0.934c-3.99,0.286-7.981,0.574-11.971,0.861c1.152,3.031,4.526,5.031,8.708,3.713
		c0.851-0.269,1.636-0.692,2.281-1.181c0.35-0.266,0.617-0.631,1.055-0.812c1.334-0.552,2.498,0.351,2.698,1.45
		c0.284,1.562-1.922,2.817-2.821,3.344c-3.691,2.165-9.082,1.579-12.167-0.639c-0.517-0.371-1.153-0.814-1.472-1.378
		c-0.024,0.024-0.049,0.05-0.073,0.075c-0.442,0.311-0.883,0.622-1.325,0.935c-1.131,0.712-2.369,1.292-3.729,1.77
		c-0.69,0.244-1.434,0.277-2.256,0.42c-1.056,0.179-2.58-0.199-3.287-0.469c-1.651-0.632-2.719-1.59-3.361-3.221
		c-0.581-1.479-0.564-3.446-0.563-5.533c0-2.599,0-5.197,0-7.795c-2.127,0.029-3.876,0.178-4.195-1.623
		c-0.087-0.489,0.11-0.917,0.27-1.18c0.713-1.179,2.08-0.98,3.925-0.959c-0.027-2.708-0.568-5.275,1.84-5.68
		c0.415-0.069,0.797,0.089,1.055,0.197C57.215,7.58,56.792,10.066,56.773,12.365z M132.154,11.972
		c3.264,0.08,5.212,1.167,6.869,2.828c0.713,0.715,1.648,2.021,0.442,3.025c-1.776,1.478-2.676-0.288-3.753-1.058
		c-1.334-0.952-3.938-1.574-5.937-0.787c-1.879,0.739-3.18,2.212-3.804,4.205c-1.253,4.008,0.656,7.646,3.387,8.828
		c4.816,2.087,8.73-1.599,10.645-4.303c0.428-0.604,1.337-1.766,1.548-2.484c0.007-0.221,0.014-0.442,0.023-0.663
		c0.106-0.574,0.213-1.148,0.317-1.722c0.624-2.103,1.604-3.998,3.115-5.213c1.215-0.976,2.563-1.768,4.318-2.213
		c4.41-1.12,8.647,0.939,10.476,3.246c0.912,1.152,1.629,2.432,2.107,4.033c0.335,1.114,0.565,2.786,0.32,4.179
		c-0.138,0.781-0.182,1.442-0.393,2.115c-1.036,3.311-3.325,5.535-6.549,6.664c-1.653,0.579-4.412,0.686-6.207,0.147
		c-2.313-0.692-4.104-1.878-5.397-3.591c-0.433-0.573-0.704-1.285-1.152-1.868c-0.008,0.018-0.018,0.033-0.023,0.049
		c-0.353,0.459-0.704,0.919-1.056,1.378c-1.064,1.334-2.697,2.615-4.342,3.344c-0.938,0.414-1.922,0.735-3.042,0.982
		c-4.241,0.941-8.474-1.312-10.156-3.54c-0.843-1.117-1.463-2.446-1.889-3.983c-1.462-5.291,1.177-10.046,4.243-11.976
		c1.065-0.669,2.306-1.111,3.729-1.426c0.474-0.058,0.949-0.115,1.424-0.172C131.664,11.989,131.909,11.98,132.154,11.972z
		 M38.105,12.169c5.295-0.07,8.451,2.359,10.032,6c0.689,1.586,1.29,4.009,0.834,6.345c-0.176,0.901-0.387,1.746-0.711,2.507
		c-1.485,3.482-4.232,5.422-8.561,6.098c-1.646,0.258-3.385-0.157-4.539-0.564c-3.28-1.155-5.502-3.539-6.451-7.033
		c-0.319-1.174-0.548-2.994-0.271-4.426c0.154-0.789,0.298-1.57,0.564-2.262c1.118-2.896,3.025-4.931,5.912-6.049
		c0.626-0.243,1.311-0.385,2.036-0.517C37.336,12.234,37.721,12.201,38.105,12.169z M103.823,12.169
		c3.672-0.055,6.74,0.627,8.34,2.656c0.634,0.804,1.612,2.171,0.687,3.369c-0.436,0.563-1.529,0.999-2.454,0.615
		c-0.91-0.379-1.022-1.625-1.84-2.14c-2.335-1.469-8.595-1.092-9.075,1.672c-0.271,1.552,1.23,1.754,2.354,1.968
		c0.862,0.164,1.826,0.096,2.772,0.246c2.407,0.382,4.858,0.362,6.599,1.378c0.631,0.368,1.248,0.822,1.668,1.4
		c1.177,1.621,1.208,4.533,0.122,6.271c-1.269,2.03-3.648,2.886-6.45,3.393c-0.84,0.153-1.964,0.21-2.846,0.074
		c-0.582-0.049-1.162-0.098-1.741-0.147c-2.28-0.447-4.259-1.077-5.447-2.606c-0.538-0.695-1.626-2.351-0.907-3.541
		c0.387-0.642,1.479-1.271,2.527-0.836c1.031,0.426,0.979,1.831,1.84,2.435c2.33,1.632,9.391,1.595,9.935-1.525
		c0.264-1.513-1.147-1.821-2.208-2.064c-0.925-0.215-1.977-0.155-3.018-0.321c-2.606-0.414-5.104-0.435-6.917-1.572
		c-1.679-1.055-2.874-3.771-1.815-6.369c0.572-1.403,1.673-2.344,2.919-3.074c0.937-0.548,2.099-0.848,3.312-1.106
		C102.727,12.284,103.274,12.226,103.823,12.169z M172.655,12.365c3.43-0.063,6.404,1.268,7.825,3.197
		c0.041-0.033,0.081-0.066,0.123-0.099c0.25-0.51,0.943-0.931,1.398-1.254c2.312-1.642,6.114-2.5,9.467-1.18
		c2.802,1.103,4.805,3.146,5.471,6.393c0.272,1.326,0.123,3.084,0.123,4.598c0,1.928,0,3.854,0,5.778
		c0,1.232,0.046,2.249-0.638,2.78c-1.226,0.95-2.967,0.285-3.238-1.083c-0.009-0.778-0.016-1.557-0.024-2.335
		c0-1.976,0-3.952,0-5.927c0-1.062,0.103-2.318-0.121-3.196c-0.406-1.584-1.361-2.542-2.626-3.271
		c-0.702-0.405-1.888-0.833-3.115-0.64c-2.566,0.407-4.236,1.72-4.783,4.132c-0.266,1.17-0.074,2.801-0.074,4.106
		c0,1.696,0,3.394,0,5.091c0,0.824,0.104,1.877-0.147,2.483c-0.247,0.599-0.789,0.936-1.521,1.057
		c-1.109,0.183-1.888-0.472-2.135-1.18c-0.161-0.465-0.098-1.191-0.098-1.795c0-1.221,0-2.443,0-3.664c0-1.312,0-2.622,0-3.935
		c0-0.721,0.061-1.523-0.073-2.14c-0.591-2.721-3.733-5.218-7.261-3.836c-1.599,0.625-2.793,1.813-3.263,3.565
		c-0.202,0.749-0.123,1.807-0.123,2.729c0,1.713,0,3.427,0,5.14c0,2.14,0.433,4.407-1.201,4.991
		c-0.325,0.116-0.893,0.185-1.301,0.075c-0.595-0.161-1.06-0.542-1.275-1.083c-0.226-0.561-0.123-1.539-0.123-2.288
		c0-1.589,0-3.179,0-4.769c0-1.808-0.195-3.961,0.147-5.533c0.631-2.895,2.416-4.926,4.857-6c0.748-0.33,1.566-0.571,2.453-0.762
		C171.805,12.464,172.229,12.415,172.655,12.365z M74.704,15.71c-0.261,0.032-0.523,0.065-0.785,0.098
		c-0.482,0.139-0.965,0.278-1.447,0.418c-2.261,0.927-3.585,2.763-3.95,5.606c4.408-0.311,8.815-0.623,13.223-0.934
		C80.705,17.728,78.925,15.699,74.704,15.71z M38.375,15.882c-0.245,0.024-0.49,0.049-0.735,0.074
		c-0.434,0.106-0.866,0.213-1.3,0.32c-1.874,0.731-3.141,2.162-3.753,4.155c-1.208,3.934,0.874,7.283,3.483,8.41
		c0.74,0.32,1.87,0.785,3.042,0.59c2.801-0.465,4.597-1.61,5.568-3.885c0.229-0.537,0.368-1.14,0.491-1.771
		c0.266-1.365-0.085-2.925-0.466-3.861C43.699,17.443,41.859,15.867,38.375,15.882z M151.583,15.882
		c-0.244,0.024-0.49,0.049-0.735,0.074c-0.458,0.115-0.917,0.229-1.375,0.344c-1.796,0.708-3.058,2.126-3.654,4.033
		c-1.236,3.949,0.724,7.131,3.287,8.435c0.737,0.375,1.973,0.865,3.189,0.663c2.821-0.468,4.623-1.613,5.593-3.91
		c0.211-0.501,0.35-1.066,0.465-1.647c0.277-1.37-0.055-2.957-0.44-3.933C156.93,17.453,155.06,15.867,151.583,15.882z
		 M118.369,28.521c3.037-0.061,3.167,3.872,0.416,4.328c-1.572,0.262-2.929-1.343-2.379-2.902c0.235-0.666,0.792-1.155,1.496-1.351
		C118.059,28.57,118.213,28.546,118.369,28.521z"/>
</g>
</svg>
