<?xml version="1.0" encoding="utf-8"?>
<!-- Generator: Adobe Illustrator 16.0.0, SVG Export Plug-In . SVG Version: 6.00 Build 0)  -->
<!DOCTYPE svg PUBLIC "-//W3C//DTD SVG 1.1//EN" "http://www.w3.org/Graphics/SVG/1.1/DTD/svg11.dtd">
<svg version="1.1" id="Layer_1" xmlns="http://www.w3.org/2000/svg" xmlns:xlink="http://www.w3.org/1999/xlink" x="0px" y="0px"
	 width="45px" height="40px" viewBox="0 0 45 40" enable-background="new 0 0 45 40" xml:space="preserve">
<g>
	<path fill="#FFFFFF" d="M42.94,9.525c-0.887,0-1.606,0.719-1.606,1.606v2.922H3.212V1.606C3.212,0.719,2.493,0,1.606,0
		C0.719,0,0,0.719,0,1.606v21.229c0,0.888,0.719,1.606,1.606,1.606c0.887,0,1.606-0.719,1.606-1.606v-3.641h38.122v3.641
		c0,0.888,0.719,1.606,1.606,1.606c0.887,0,1.606-0.719,1.606-1.606V11.131C44.546,10.245,43.827,9.525,42.94,9.525z"/>
	<path fill="#FFFFFF" d="M6.585,12.77h31.481c1.064,0,1.928-0.863,1.928-1.928c0-0.396-0.12-0.763-0.325-1.069
		c-0.321-1.335-1.616-4.604-6.743-6.159c-4.311-1.307-15.741-0.78-15.741-0.78v6.08H6.585c-1.064,0-1.928,0.863-1.928,1.928
		C4.658,11.907,5.521,12.77,6.585,12.77z M24.943,4.752c3.115-0.278,9.236,0.331,10.783,3.232c0.275,0.514-0.313,1.205-1.421,0.466
		c-3.573-2.383-5.414-2.285-9.185-2.312C24.222,6.131,23.835,4.852,24.943,4.752z"/>
	<circle fill="#FFFFFF" cx="11.832" cy="3.989" r="3.53"/>
</g>
<g>
	<path fill="#FFFFFF" d="M8.366,39.126H6.496v-3.82H2.991v3.82H1.114v-8.851h1.877v3.469h3.505v-3.469h1.871V39.126z"/>
	<path fill="#FFFFFF" d="M18.014,34.688c0,1.465-0.363,2.591-1.09,3.378c-0.727,0.787-1.768,1.181-3.124,1.181
		c-1.356,0-2.397-0.394-3.124-1.181c-0.727-0.787-1.09-1.917-1.09-3.39s0.364-2.598,1.093-3.375s1.773-1.166,3.133-1.166
		c1.36,0,2.4,0.392,3.121,1.175C17.654,32.093,18.014,33.22,18.014,34.688z M11.555,34.688c0,0.989,0.188,1.733,0.563,2.234
		s0.936,0.75,1.683,0.75c1.497,0,2.246-0.995,2.246-2.984c0-1.994-0.745-2.991-2.234-2.991c-0.747,0-1.31,0.251-1.689,0.754
		S11.555,33.7,11.555,34.688z"/>
	<path fill="#FFFFFF" d="M22.643,39.126h-1.877v-7.289h-2.403v-1.562h6.684v1.562h-2.403V39.126z"/>
	<path fill="#FFFFFF" d="M30.886,39.126h-5.098v-8.851h5.098v1.538h-3.221v1.943h2.997v1.538h-2.997v2.282h3.221V39.126z"/>
	<path fill="#FFFFFF" d="M32.112,39.126v-8.851h1.877v7.301h3.59v1.55H32.112z"/>
	<path fill="#FFFFFF" d="M43.721,36.668c0,0.799-0.288,1.429-0.863,1.889c-0.575,0.46-1.375,0.69-2.4,0.69
		c-0.944,0-1.78-0.178-2.506-0.533v-1.744c0.598,0.267,1.103,0.454,1.517,0.563s0.792,0.164,1.135,0.164
		c0.412,0,0.728-0.079,0.947-0.236c0.22-0.157,0.33-0.391,0.33-0.702c0-0.173-0.048-0.328-0.146-0.463
		c-0.097-0.135-0.239-0.266-0.427-0.391c-0.188-0.125-0.57-0.325-1.147-0.599c-0.541-0.254-0.947-0.499-1.217-0.733
		c-0.271-0.234-0.486-0.506-0.648-0.817c-0.162-0.311-0.242-0.674-0.242-1.09c0-0.783,0.266-1.398,0.796-1.846
		c0.53-0.448,1.264-0.672,2.2-0.672c0.46,0,0.899,0.055,1.317,0.164s0.854,0.262,1.311,0.46l-0.605,1.459
		c-0.472-0.193-0.862-0.329-1.171-0.405c-0.309-0.077-0.612-0.115-0.911-0.115c-0.355,0-0.627,0.083-0.817,0.248
		c-0.19,0.166-0.285,0.381-0.285,0.648c0,0.166,0.038,0.31,0.115,0.433c0.077,0.124,0.199,0.242,0.367,0.357
		c0.167,0.115,0.564,0.322,1.189,0.621c0.827,0.396,1.395,0.792,1.701,1.189S43.721,36.091,43.721,36.668z"/>
</g>
</svg>
