<?xml version="1.0" encoding="utf-8"?>
<!-- Generator: Adobe Illustrator 16.0.0, SVG Export Plug-In . SVG Version: 6.00 Build 0)  -->
<!DOCTYPE svg PUBLIC "-//W3C//DTD SVG 1.1//EN" "http://www.w3.org/Graphics/SVG/1.1/DTD/svg11.dtd">
<svg version="1.1" xmlns="http://www.w3.org/2000/svg" xmlns:xlink="http://www.w3.org/1999/xlink" x="0px" y="0px" width="30px"
	 height="30px" viewBox="0 0 30 30" enable-background="new 0 0 30 30" xml:space="preserve">
<g id="Layer_1" display="none">
	<rect x="0.191" y="0.166" display="inline" width="29.632" height="29.669"/>
</g>
<g id="Layer_2">
	<g>
		<path fill="#FFFFFF" d="M5.319,28.367L4.107,24.1H4.07c0.057,0.728,0.085,1.291,0.085,1.694v2.573H2.737v-5.925h2.131l1.236,4.206
			h0.032l1.212-4.206h2.136v5.925H8.014V25.77c0-0.136,0.002-0.285,0.006-0.45s0.022-0.569,0.055-1.211H8.039l-1.196,4.259H5.319z"
			/>
		<path fill="#FFFFFF" d="M14.28,28.367h-3.518v-5.925h3.518v1.285h-1.917v0.932h1.775v1.285h-1.775v1.117h1.917V28.367z"/>
		<path fill="#FFFFFF" d="M20.959,28.367H18.86l-2.166-4.175h-0.035c0.051,0.656,0.076,1.158,0.076,1.504v2.671h-1.418v-5.925h2.091
			l2.156,4.117h0.023c-0.037-0.597-0.056-1.076-0.056-1.438v-2.679h1.427V28.367z"/>
		<path fill="#FFFFFF" d="M27.277,22.442v3.565c0,0.775-0.22,1.376-0.658,1.802c-0.439,0.427-1.072,0.639-1.899,0.639
			c-0.808,0-1.429-0.207-1.861-0.62c-0.435-0.413-0.651-1.007-0.651-1.783v-3.603h1.609v3.478c0,0.419,0.078,0.723,0.235,0.911
			c0.156,0.189,0.387,0.284,0.692,0.284c0.327,0,0.564-0.094,0.711-0.282c0.147-0.188,0.221-0.494,0.221-0.922v-3.469H27.277z"/>
	</g>
	<path fill="#FCFAFC" d="M28.007,4.978c0,0.552-0.447,1-1,1h-24c-0.552,0-1-0.448-1-1v-2c0-0.552,0.448-1,1-1h24
		c0.553,0,1,0.448,1,1V4.978z"/>
	<path fill="#FCFAFC" d="M28,18.479c0,0.553-0.447,1-1,1H3c-0.552,0-1-0.447-1-1v-2c0-0.553,0.448-1,1-1h24c0.553,0,1,0.447,1,1
		V18.479z"/>
	<path fill="#FCFAFC" d="M28,11.668c0,0.552-0.447,1-1,1H3c-0.552,0-1-0.448-1-1v-2c0-0.552,0.448-1,1-1h24c0.553,0,1,0.448,1,1
		V11.668z"/>
</g>
</svg>
